# xmcd CD database file
#
# Track frame offsets:
#	182
#	23560
#	36450
#	49745
#	68387
#	91125
#	104487
#	117150
#	127215
#	159642
#	171642
#	182390
#	195410
#	210960
#	224115
#	236150
#	252797
#	267312
#
# Disc length: 3843 seconds
#
# Revision: 3
# Processed by: cddbd v1.4PL0 Copyright (c) Steve Scherf et al.
# Submitted via: CDex 1.40Beta9
#
DISCID=030f0112
DTITLE=Various Artist - Totally Blues Guitar
DYEAR=1997
DGENRE=Blues
TTITLE0=B.B. King: Don´t answer the Door
TTITLE1=Muddy Waters: Hoochie Coochie Man
TTITLE2=Elmore James: Dust My Broom
TTITLE3=Bobby Bland: Stormy Monday Blues
TTITLE4=Hohny Guitar Watson: A real mother for ya
TTITLE5=Taj Mahal: Statesboro Blues
TTITLE6=Clarence Brown: St. Loius Blues
TTITLE7=John Lee Hooker: Dimples
TTITLE8=Buddy Guy: Stone Crazy
TTITLE9=T-Bone Walker: Tell me what´s the reason
TTITLE10=Jimmy Reed: Ain´t that loving you baby
TTITLE11=Tampa Reed: Pretty Baby Blues
TTITLE12=Albert Collins: Got a good thing goin´
TTITLE13=Howling Wolf: Moaning at Midnight
TTITLE14=Johnny Winter: Bony Moronie
TTITLE15=Son House: John The Revelator
TTITLE16=George Thorogood: Smokestack Lightnin´
TTITLE17=Stvie Ray Vaughan: The Sky Is Crying
EXTD=Jean-Philippe Collard, Klavier\n\nRoyal Philharmonic Orchestra\nAndré Previn\n\nEMI CDC 7 49757 2\n(p) 1988 ID3G: 0
EXTT0=Author - Gérard MELIN (Brussels-Belgium 9/98]\ngerard.melin@tvd.be\n00-32-2-6272570\nCD067
EXTT1=Produced by Finisterre and Roberto Colombo. 1999.\nSubmitted by PhC.
EXTT2=Copyright (C) 1995, 1996 DDT Records, St.Petersburg
EXTT3=Radio PSR - Sinnlos Telefon Volume 9
EXTT4=1900\n\n\n
EXTT5=Rock Hard Promo Sampler
EXTT6=Meditative Musik für Gitarre
EXTT7=Metallica 1999
EXTT8=(p) 1995, Ôèðìà ãðàìçàïèñè ÔÈËÈ\n
EXTT9=Disc 2 of Sinkadus- Live at Progfest '97 is the original version of their first album, Aurum Nostrum.  Consider it a really good sounding demo album.
EXTT10=Lyddon Davis\n
EXTT10=vocals, guitar\n
EXTT10=Dennis Lunny\n
EXTT10=drums, percussion, backing vocals\n
EXTT10=David Manley\n
EXTT10=guitars, violin, e-bow\n
EXTT10=Mark Franchitto\n
EXTT10=electric and acoustic bass\n
EXTT10=Roger Rohrbach\n
EXTT10=synthesizers, Mellotron\n
EXTT10=\n
EXTT10=Produced by Norman Kerner for\n
EXTT10=Brilliant Productions\n
EXTT10=\n
EXTT10=Recorded and mixed by Norman Kerner\n
EXTT10=and Brian Zee at Brilliant Studios,\n
EXTT10=San Francisco\n
EXTT10=\n
EXTT10=Assistant Engineer: Adam Muñoz\n
EXTT10=\n
EXTT10=Mastered by Marc Senesac at the\n
EXTT10=Rocket Lab, San Francisco\n
EXTT10=\n
EXTT10=All music by the Wayward Bus\n
EXTT10=© (P) 1993 Z-Word Music (ASCAP]\n
EXTT11=1998
EXTT12=©1987 Lazy Records  -  LAZY 12 CD
EXTT13=Label: hat ART CD 6010\n
EXTT13=Recording date: 7-12 December 1987\n
EXTT13=Producer: Fritz Hauser, Pia and Werner X. Uehlinger\n
EXTT13=Notes: Fritz Hauser duos with guest artists.\n
EXTT13=Performers:\n
EXTT13=Lauren Newton - voice (1,7,13]\n
EXTT13=Pauline Oliveros - accordion (7,12]\n
EXTT13=Christy Doran - acoustic and electric guitars,\n
EXTT13=electronic devices (3,5,11]\n
EXTT13=Stephan Greider - piano (6,10,14]\n
EXTT13=Rob Kloet - percussion (4]\n
EXTT13=René Krebs - stereo-flugelhorn, seashell,\n
EXTT13=electronic devices (2,9)
EXTT14=Remasterisation en haute définition
EXTT15=1998\nWarner Music Sweden\n3984-23699-2\n
EXTT16=Töshöklabs\nTLCD002\n1999, US
EXTT17=Digital remastered
PLAYORDER=
